<?xml version='1.0' encoding='utf-8'?>
<svg xmlns="http://www.w3.org/2000/svg" id="Layer_2" data-name="Layer 2" width="46.43" height="45.09" viewBox="0 0 46.43 45.09">
  <defs>
    <style>
      .cls-1 {
        fill: #87b7ec;
      }

      .cls-2 {
        fill: #294355;
      }

      .cls-3 {
        fill: #294355;
      }
    </style>
  </defs>
  <g id="Layer_1-2" data-name="Layer 1">
    <g>
      <g>
        <path class="cls-2" d="M22.974,31.146c2.455,10.642-10.038,18.833-18.669,10.543-3.696-2.804-5.987-14.73-2.777-24.798.663-1.847,1.798-4.7,4.323-8.78,7.723-4.987,7.775-1.97,7.44-.569-1.824,7.628.182,10.407.771,11.275,5.085,7.5,7.776,6.793,8.912,12.328Z" />
        <path class="cls-1" d="M30.202,23.565c9.911,4.586,20.667-6.024,14.325-16.173C42.541,3.199,32.793-1.04,20.751.229c-1.944.27-10.53,1.431-14.9,7.883,10.014-1.531,13.919,3.027,14.783,3.985,3.386,3.753,4.383,9.22,9.567,11.468Z" />
      </g>
      </g>
  </g>
</svg>