<svg width="1100" height="1100" viewBox="0 0 1100 1100" fill="none" xmlns="http://www.w3.org/2000/svg">
<path d="M577.084 874.528C553.389 896.92 525.949 914.834 498.101 933.073C300.889 892.93 192.024 698.731 148.217 509.58C148.217 509.58 143.99 458.182 147.158 445.092C150.326 432.001 158.14 422.075 158.14 422.075C182.974 362.39 240.716 332.48 303.006 342.007C360.981 350.801 399.332 398.109 410.65 459.422C438.824 612.176 465.205 772.91 577.084 874.528Z" fill="#2B4556"/>
<path d="M498.098 933.069C525.945 914.749 553.385 896.835 577.08 874.525C685.701 771.929 659.645 600.366 650.119 445.251C644.337 351.449 667.136 259.438 737.162 197.148C777.061 161.647 831.453 141.127 883.402 157.657C939.504 175.57 978.1 224.995 992.268 285.657C1063.68 591.165 868.42 958.067 595.482 948.377C561.854 947.156 527.004 938.851 498.098 932.988V933.069Z" fill="#FEC14E"/>
</svg>
