<svg width="1100" height="1100" viewBox="0 0 1100 1100" fill="none" xmlns="http://www.w3.org/2000/svg">
<g clip-path="url(#clip0_2654_34750)">
<path d="M545.936 696.489C587.57 877.298 375.323 1016.47 228.671 875.598C165.795 828.017 126.881 625.287 181.429 454.164C192.645 422.726 212.017 374.295 254.84 304.963C386.029 220.166 387.048 271.486 381.271 295.276C350.343 424.936 384.33 472.177 394.356 486.791C480.682 614.241 526.564 602.176 545.766 696.319L545.936 696.489Z" fill="#294355"/>
<path d="M668.785 567.509C837.189 645.508 1020.04 465.209 912.3 292.727C878.483 221.525 712.798 149.473 508.199 171.055C475.231 175.643 329.259 195.355 254.998 304.962C425.101 278.962 491.545 356.452 506.159 372.596C563.767 436.32 580.59 529.274 668.785 567.509Z" fill="#87B7EC"/>
</g>
<defs>
<clipPath id="clip0_2654_34750">
<rect width="789" height="766.229" fill="white" transform="translate(155.594 167.148)"/>
</clipPath>
</defs>
</svg>
