<svg width="1100" height="1100" viewBox="0 0 1100 1100" fill="none" xmlns="http://www.w3.org/2000/svg">
<path d="M494.6 720.806C543.174 672.903 602.468 540.796 632.73 475.89L703.61 323.887C713.529 302.625 724.979 279.96 734.13 258.512C760.729 196.163 817.744 156.347 886.225 156.814C928.462 157.084 968.857 174.142 998.506 204.226C1028.06 234.43 1044.42 275.127 1043.99 317.381C1043.94 335.671 1040.63 353.804 1034.23 370.935C1026.05 392.94 1005.46 427.036 992.892 447.762C923.158 562.739 832.373 681.762 735.877 775.845C734.534 777.142 733.166 778.411 731.771 779.653C725.416 779.75 704.484 786.729 697.001 788.513C611.603 808.876 550.946 785.317 494.6 720.806Z" fill="#294355"/>
<path d="M731.77 779.653C703.781 810.593 677.43 838.667 644.661 864.896C570.18 924.504 475.06 952.064 380.249 941.506C256.869 927.661 139.839 853.214 83.929 741.459C64.5908 702.805 52.3068 662.063 57.3046 618.541C62.6168 573.547 85.7083 532.546 121.433 504.68C159.524 474.099 208.257 460.014 256.79 465.557C361.769 477.87 395.753 558.741 441.806 640.801C457.655 669.037 474.477 695.344 494.598 720.806C550.944 785.317 611.601 808.875 696.999 788.513C704.482 786.729 725.414 779.75 731.77 779.653Z" fill="#93C7C7"/>
</svg>
