<svg width="1100" height="1100" viewBox="0 0 1100 1100" fill="none" xmlns="http://www.w3.org/2000/svg">
<path d="M685.193 830.267C682.341 726.038 582.035 624.412 510.662 555.858C439.966 489.059 362.549 441.734 359.812 333.632C357.201 230.561 432.458 147.442 536.2 147.525C767.515 147.712 913.336 374.295 918.387 586.07C922.794 770.808 820.364 926.503 630.358 948.235L628.634 947.248C628.684 944.696 634.81 940.221 637.419 937.655C669.319 906.273 684.47 874.805 685.193 830.267Z" fill="#FE96A3"/>
<path d="M630.358 948.234C572.79 957.272 513.932 953.422 458.033 936.962C371.789 912.151 244.095 845.361 195.938 765.238C180.623 739.758 177.943 701.564 186.398 672.74C195.083 643.194 215.153 618.31 242.189 603.564C273.607 586.391 311.261 584.941 343.907 599.649C365.129 609.175 397.187 638.578 415.686 654.786C500.513 729.102 573.88 797.11 685.193 830.266C684.47 874.804 669.319 906.272 637.419 937.654C634.81 940.22 628.684 944.695 628.634 947.246L630.358 948.234Z" fill="#294355"/>
</svg>
