<svg width="16" height="16" viewBox="0 0 16 16" fill="none" xmlns="http://www.w3.org/2000/svg">
<path fill-rule="evenodd" clip-rule="evenodd" d="M5.33325 1.99996C5.15644 1.99996 4.98687 2.0702 4.86185 2.19522C4.73682 2.32025 4.66659 2.48981 4.66659 2.66663V14H11.3333V2.66663C11.3333 2.48982 11.263 2.32025 11.138 2.19522C11.013 2.0702 10.8434 1.99996 10.6666 1.99996H5.33325ZM3.91904 1.25241C4.29411 0.87734 4.80282 0.666626 5.33325 0.666626H10.6666C11.197 0.666626 11.7057 0.87734 12.0808 1.25241C12.4559 1.62748 12.6666 2.13619 12.6666 2.66663V14.6666C12.6666 15.0348 12.3681 15.3333 11.9999 15.3333H3.99992C3.63173 15.3333 3.33325 15.0348 3.33325 14.6666V2.66663C3.33325 2.13619 3.54397 1.62749 3.91904 1.25241Z" fill="white"/>
<path fill-rule="evenodd" clip-rule="evenodd" d="M1.25253 7.91916C1.62761 7.54409 2.13631 7.33337 2.66675 7.33337H4.00008C4.36827 7.33337 4.66675 7.63185 4.66675 8.00004C4.66675 8.36823 4.36827 8.66671 4.00008 8.66671H2.66675C2.48994 8.66671 2.32037 8.73695 2.19534 8.86197C2.07032 8.98699 2.00008 9.15656 2.00008 9.33337V13.3334C2.00008 13.5102 2.07032 13.6798 2.19534 13.8048C2.32037 13.9298 2.48994 14 2.66675 14H4.00008C4.36827 14 4.66675 14.2985 4.66675 14.6667C4.66675 15.0349 4.36827 15.3334 4.00008 15.3334H2.66675C2.13631 15.3334 1.62761 15.1227 1.25253 14.7476C0.877462 14.3725 0.666748 13.8638 0.666748 13.3334V9.33337C0.666748 8.80294 0.877462 8.29423 1.25253 7.91916Z" fill="white"/>
<path fill-rule="evenodd" clip-rule="evenodd" d="M11.3333 6.00004C11.3333 5.63185 11.6317 5.33337 11.9999 5.33337H13.3333C13.8637 5.33337 14.3724 5.54409 14.7475 5.91916C15.1225 6.29423 15.3333 6.80294 15.3333 7.33337V13.3334C15.3333 13.8638 15.1225 14.3725 14.7475 14.7476C14.3724 15.1227 13.8637 15.3334 13.3333 15.3334H11.9999C11.6317 15.3334 11.3333 15.0349 11.3333 14.6667C11.3333 14.2985 11.6317 14 11.9999 14H13.3333C13.5101 14 13.6796 13.9298 13.8047 13.8048C13.9297 13.6798 13.9999 13.5102 13.9999 13.3334V7.33337C13.9999 7.15656 13.9297 6.98699 13.8047 6.86197C13.6796 6.73695 13.5101 6.66671 13.3333 6.66671H11.9999C11.6317 6.66671 11.3333 6.36823 11.3333 6.00004Z" fill="white"/>
<path fill-rule="evenodd" clip-rule="evenodd" d="M6 4.00004C6 3.63185 6.29848 3.33337 6.66667 3.33337H9.33333C9.70152 3.33337 10 3.63185 10 4.00004C10 4.36823 9.70152 4.66671 9.33333 4.66671H6.66667C6.29848 4.66671 6 4.36823 6 4.00004Z" fill="white"/>
<path fill-rule="evenodd" clip-rule="evenodd" d="M6 6.66667C6 6.29848 6.29848 6 6.66667 6H9.33333C9.70152 6 10 6.29848 10 6.66667C10 7.03486 9.70152 7.33333 9.33333 7.33333H6.66667C6.29848 7.33333 6 7.03486 6 6.66667Z" fill="white"/>
<path fill-rule="evenodd" clip-rule="evenodd" d="M6 9.33329C6 8.9651 6.29848 8.66663 6.66667 8.66663H9.33333C9.70152 8.66663 10 8.9651 10 9.33329C10 9.70148 9.70152 9.99996 9.33333 9.99996H6.66667C6.29848 9.99996 6 9.70148 6 9.33329Z" fill="white"/>
<path fill-rule="evenodd" clip-rule="evenodd" d="M6 12C6 11.6319 6.29848 11.3334 6.66667 11.3334H9.33333C9.70152 11.3334 10 11.6319 10 12C10 12.3682 9.70152 12.6667 9.33333 12.6667H6.66667C6.29848 12.6667 6 12.3682 6 12Z" fill="white"/>
</svg>
