<svg width="16" height="16" viewBox="0 0 16 16" fill="none" xmlns="http://www.w3.org/2000/svg">
<path fill-rule="evenodd" clip-rule="evenodd" d="M5.25253 1.25241C5.62761 0.87734 6.13631 0.666626 6.66675 0.666626H9.33341C9.86385 0.666626 10.3726 0.87734 10.7476 1.25241C11.1227 1.62748 11.3334 2.13619 11.3334 2.66663V13.3333C11.3334 13.7015 11.0349 14 10.6667 14C10.2986 14 10.0001 13.7015 10.0001 13.3333V2.66663C10.0001 2.48982 9.92984 2.32025 9.80482 2.19522C9.67979 2.0702 9.51023 1.99996 9.33341 1.99996H6.66675C6.48994 1.99996 6.32037 2.0702 6.19534 2.19522C6.07032 2.32025 6.00008 2.48982 6.00008 2.66663V13.3333C6.00008 13.7015 5.7016 14 5.33341 14C4.96522 14 4.66675 13.7015 4.66675 13.3333V2.66663C4.66675 2.13619 4.87746 1.62748 5.25253 1.25241Z" fill="white"/>
<path fill-rule="evenodd" clip-rule="evenodd" d="M2.66675 4.66671C2.29856 4.66671 2.00008 4.96518 2.00008 5.33337V12C2.00008 12.3682 2.29856 12.6667 2.66675 12.6667H13.3334C13.7016 12.6667 14.0001 12.3682 14.0001 12V5.33337C14.0001 4.96518 13.7016 4.66671 13.3334 4.66671H2.66675ZM0.666748 5.33337C0.666748 4.2288 1.56218 3.33337 2.66675 3.33337H13.3334C14.438 3.33337 15.3334 4.2288 15.3334 5.33337V12C15.3334 13.1046 14.438 14 13.3334 14H2.66675C1.56218 14 0.666748 13.1046 0.666748 12V5.33337Z" fill="white"/>
</svg>
