<svg width="16" height="16" viewBox="0 0 16 16" fill="none" xmlns="http://www.w3.org/2000/svg">
<path fill-rule="evenodd" clip-rule="evenodd" d="M2.58579 1.25241C2.96086 0.87734 3.46957 0.666626 4 0.666626H10C10.1768 0.666626 10.3464 0.736864 10.4714 0.861888L13.8047 4.19522C13.9298 4.32025 14 4.48982 14 4.66663V13.3333C14 13.8637 13.7893 14.3724 13.4142 14.7475C13.0391 15.1226 12.5304 15.3333 12 15.3333H2.66667C2.29848 15.3333 2 15.0348 2 14.6666C2 14.2984 2.29848 14 2.66667 14H12C12.1768 14 12.3464 13.9297 12.4714 13.8047C12.5964 13.6797 12.6667 13.5101 12.6667 13.3333V4.94277L9.72386 1.99996H4C3.82319 1.99996 3.65362 2.0702 3.5286 2.19522C3.40357 2.32025 3.33333 2.48981 3.33333 2.66663V5.33329C3.33333 5.70148 3.03486 5.99996 2.66667 5.99996C2.29848 5.99996 2 5.70148 2 5.33329V2.66663C2 2.13619 2.21071 1.62749 2.58579 1.25241Z" fill="white"/>
<path fill-rule="evenodd" clip-rule="evenodd" d="M9.33341 0.666626C9.7016 0.666626 10.0001 0.965103 10.0001 1.33329V3.99996C10.0001 4.17677 10.0703 4.34634 10.1953 4.47136C10.3204 4.59639 10.4899 4.66663 10.6667 4.66663H13.3334C13.7016 4.66663 14.0001 4.9651 14.0001 5.33329C14.0001 5.70148 13.7016 5.99996 13.3334 5.99996H10.6667C10.1363 5.99996 9.62761 5.78925 9.25253 5.41417C8.87746 5.0391 8.66675 4.53039 8.66675 3.99996V1.33329C8.66675 0.965103 8.96522 0.666626 9.33341 0.666626Z" fill="white"/>
<path fill-rule="evenodd" clip-rule="evenodd" d="M0.666748 8.00004C0.666748 7.63185 0.965225 7.33337 1.33341 7.33337H5.33342C5.7016 7.33337 6.00008 7.63185 6.00008 8.00004V8.66671C6.00008 9.0349 5.7016 9.33337 5.33342 9.33337C4.96523 9.33337 4.66675 9.0349 4.66675 8.66671H2.00008C2.00008 9.0349 1.7016 9.33337 1.33341 9.33337C0.965225 9.33337 0.666748 9.0349 0.666748 8.66671V8.00004Z" fill="white"/>
<path fill-rule="evenodd" clip-rule="evenodd" d="M3.33341 7.33337C3.7016 7.33337 4.00008 7.63185 4.00008 8.00004V12C4.00008 12.3682 3.7016 12.6667 3.33341 12.6667C2.96522 12.6667 2.66675 12.3682 2.66675 12V8.00004C2.66675 7.63185 2.96522 7.33337 3.33341 7.33337Z" fill="white"/>
<path fill-rule="evenodd" clip-rule="evenodd" d="M2 12C2 11.6319 2.29848 11.3334 2.66667 11.3334H4C4.36819 11.3334 4.66667 11.6319 4.66667 12C4.66667 12.3682 4.36819 12.6667 4 12.6667H2.66667C2.29848 12.6667 2 12.3682 2 12Z" fill="white"/>
</svg>
