<svg width="16" height="16" viewBox="0 0 16 16" fill="none" xmlns="http://www.w3.org/2000/svg">
<path fill-rule="evenodd" clip-rule="evenodd" d="M7.92788 2.02562C6.69495 3.10116 4.88071 4.00001 3.33333 4.00001V8.66668C3.33333 10.1573 3.8472 11.2407 4.65783 12.0709C5.48662 12.9198 6.65582 13.5332 7.99761 13.9965C8.00265 13.9983 8.00767 14.0001 8.01267 14.0019C9.3494 13.5354 10.5153 12.9209 11.3426 12.0722C12.1528 11.2409 12.6667 10.1573 12.6667 8.66668V4.00001C11.1198 4.00001 9.31227 3.10832 8.07206 2.02558C8.05179 2.00887 8.02631 1.99972 8 1.99972C7.97366 1.99972 7.94817 2.00889 7.92788 2.02562ZM7.06028 1.01315C7.32224 0.789346 7.65546 0.666382 8 0.666382C8.34454 0.666382 8.67776 0.789346 8.93972 1.01315C8.94164 1.01479 8.94356 1.01645 8.94547 1.01812C10.0385 1.97372 11.5486 2.66668 12.6667 2.66668C13.0203 2.66668 13.3594 2.80716 13.6095 3.05721C13.8595 3.30726 14 3.64639 14 4.00001V8.66668C14 10.5094 13.3472 11.9258 12.2974 13.0028C11.2658 14.0613 9.88043 14.7629 8.44609 15.2629C8.44427 15.2635 8.44245 15.2641 8.44063 15.2647C8.15311 15.3622 7.84104 15.3585 7.556 15.2546C6.12007 14.7581 4.73518 14.0587 3.70383 13.0024C2.6528 11.926 2 10.5094 2 8.66668V4.00001C2 3.64639 2.14048 3.30725 2.39052 3.05721C2.64057 2.80716 2.97971 2.66668 3.33333 2.66668C4.45093 2.66668 5.96774 1.9675 7.05474 1.01794C7.05658 1.01633 7.05843 1.01474 7.06028 1.01315Z" fill="white"/>
<path fill-rule="evenodd" clip-rule="evenodd" d="M10.4713 6.19526C10.7317 6.45561 10.7317 6.87772 10.4713 7.13807L7.80466 9.80474C7.54431 10.0651 7.1222 10.0651 6.86185 9.80474L5.52851 8.4714C5.26816 8.21106 5.26816 7.78895 5.52851 7.5286C5.78886 7.26825 6.21097 7.26825 6.47132 7.5286L7.33325 8.39052L9.52851 6.19526C9.78886 5.93491 10.211 5.93491 10.4713 6.19526Z" fill="white"/>
</svg>
