<svg width="41" height="40" viewBox="0 0 41 40" fill="none" xmlns="http://www.w3.org/2000/svg">
<g clip-path="url(#clip0_2035_11553)">
<path d="M37.844 9.66223C38.4295 16.5892 34.6257 20.7503 31.5032 21.7336C24.3888 23.9736 20.7818 18.8779 15.2323 18.2127C5.77519 17.0791 -0.0600983 28.8075 8.04072 35.53C16.3204 42.4011 28.2567 40.6238 34.1651 35.0215C39.7166 30.1742 44.0228 19.699 37.844 9.66223Z" fill="#FFC14C"/>
<path d="M12.9707 0.0656261C18.7747 -0.0748508 24.6123 -0.215754 29.4414 2.19453C32.4583 3.516 36.241 6.66938 37.8447 9.66719C38.3973 16.2234 35.0178 20.3013 32.0068 21.551C31.9669 21.5675 31.927 21.5839 31.8867 21.5998C31.7584 21.65 31.6305 21.6945 31.5039 21.7346C30.4811 22.0566 29.5299 22.2269 28.6357 22.2805C28.4977 22.2884 28.3577 22.2946 28.2158 22.298C27.6815 22.3089 27.1669 22.2777 26.6689 22.2141C31.2033 17.2136 27.3107 12.2183 22.6221 12.218H10.2939C9.91667 12.218 9.51869 12.0926 9.24609 11.801C8.99453 11.53 8.84766 11.1546 8.84766 10.7795C8.84778 10.4046 8.99464 10.0297 9.24609 9.75899C9.51866 9.48809 9.87471 9.32094 10.252 9.3H22.0342C22.2648 9.3 22.4752 9.21733 22.6221 9.07149C22.7688 8.90487 22.8525 8.71675 22.8525 8.4875C22.8525 8.25865 22.7684 8.05027 22.6221 7.90449C22.4542 7.75859 22.2438 7.675 22.0342 7.675H13.2715C12.8732 7.65401 12.5162 7.48697 12.2646 7.21602C12.0133 6.94531 11.8662 6.57031 11.8662 6.19551C11.8662 5.82056 11.9921 5.44499 12.2646 5.17402C12.5372 4.9033 12.8942 4.73679 13.2715 4.71602H17.9463C18.177 4.71602 18.3864 4.63236 18.5332 4.48652C18.6799 4.31997 18.7636 4.13266 18.7637 3.90352C18.7637 3.67441 18.6799 3.46538 18.5332 3.31953C18.3654 3.17379 18.1558 3.09102 17.9463 3.09102H8.91016C8.70067 3.11175 8.49128 3.06944 8.30273 3.00703C8.11405 2.94455 7.92503 2.84034 7.77832 2.69453C7.63159 2.56963 7.5267 2.40286 7.42188 2.19453C7.33801 2.00705 7.29596 1.79903 7.2959 1.61152C7.2959 1.42392 7.33802 1.21508 7.42188 1.02754C7.50572 0.840067 7.63157 0.673331 7.77832 0.52754C7.92509 0.381778 8.1141 0.277647 8.30273 0.21504C8.49136 0.152699 8.70068 0.111147 8.91016 0.132032C10.2528 0.132026 11.6109 0.0985354 12.9707 0.0656261ZM5.41016 9.28926C6.23206 9.28949 6.89825 9.95185 6.89844 10.7688C6.89844 11.5858 6.23218 12.249 5.41016 12.2492C4.58784 12.2492 3.9209 11.586 3.9209 10.7688C3.92109 9.95163 4.58803 9.28926 5.41016 9.28926ZM1.48828 0.133009C2.31048 0.133009 2.97748 0.795355 2.97754 1.6125C2.97754 2.42968 2.31051 3.09199 1.48828 3.09199C0.666192 3.09174 0 2.42961 0 1.6125C5.46979e-05 0.795442 0.666294 0.133261 1.48828 0.133009Z" fill="white"/>
</g>
<defs>
<clipPath id="clip0_2035_11553">
<rect width="40.875" height="39.9922" fill="white"/>
</clipPath>
</defs>
</svg>
