<svg width="16" height="16" viewBox="0 0 16 16" fill="none" xmlns="http://www.w3.org/2000/svg">
<path d="M15.2999 9.39995C15.2474 9.43934 15.1876 9.46801 15.124 9.48431C15.0604 9.5006 14.9942 9.50421 14.9292 9.49492C14.8642 9.48564 14.8017 9.46364 14.7452 9.43019C14.6887 9.39673 14.6393 9.35248 14.5999 9.29995C14.2986 8.89486 13.9063 8.56619 13.4547 8.3404C13.0031 8.1146 12.5048 7.99799 11.9999 7.99995C11.9016 7.99994 11.8055 7.97094 11.7236 7.91658C11.6416 7.86222 11.5775 7.78491 11.5393 7.69432C11.5134 7.63281 11.5 7.56672 11.5 7.49995C11.5 7.43318 11.5134 7.36709 11.5393 7.30557C11.5775 7.21498 11.6416 7.13768 11.7236 7.08332C11.8055 7.02896 11.9016 6.99996 11.9999 6.99995C12.2805 6.99992 12.5554 6.92122 12.7935 6.77279C13.0315 6.62435 13.2232 6.41213 13.3467 6.16022C13.4702 5.90832 13.5205 5.62683 13.4921 5.34774C13.4636 5.06864 13.3574 4.80312 13.1856 4.58134C13.0138 4.35956 12.7833 4.1904 12.5201 4.09308C12.257 3.99577 11.9719 3.9742 11.6971 4.03081C11.4223 4.08743 11.1689 4.21997 10.9657 4.41338C10.7625 4.60679 10.6176 4.85331 10.5474 5.12495C10.531 5.18856 10.5022 5.24831 10.4627 5.3008C10.4232 5.35328 10.3738 5.39747 10.3172 5.43084C10.2606 5.46421 10.198 5.48611 10.1329 5.49529C10.0679 5.50446 10.0017 5.50074 9.93807 5.48432C9.87446 5.46791 9.81471 5.43913 9.76222 5.39962C9.70974 5.36011 9.66555 5.31065 9.63218 5.25407C9.59881 5.19748 9.57691 5.13487 9.56773 5.06983C9.55855 5.00478 9.56228 4.93856 9.57869 4.87495C9.67604 4.49827 9.85996 4.14951 10.1158 3.85642C10.3717 3.56333 10.6924 3.33399 11.0525 3.18667C11.4126 3.03934 11.8021 2.97809 12.19 3.00778C12.5779 3.03747 12.9535 3.15729 13.287 3.35771C13.6205 3.55812 13.9025 3.83359 14.1108 4.16221C14.3191 4.49083 14.4478 4.86352 14.4867 5.25062C14.5255 5.63773 14.4735 6.02857 14.3348 6.39204C14.196 6.75552 13.9744 7.08159 13.6874 7.34432C14.3673 7.6387 14.9584 8.10583 15.4018 8.69932C15.4412 8.75199 15.4698 8.8119 15.486 8.87564C15.5022 8.93938 15.5057 9.00569 15.4962 9.07077C15.4868 9.13585 15.4646 9.19843 15.4309 9.25492C15.3972 9.3114 15.3527 9.36069 15.2999 9.39995ZM11.9324 13.2499C11.9686 13.3069 11.9929 13.3705 12.0039 13.437C12.0148 13.5036 12.0122 13.5716 11.9961 13.6371C11.9801 13.7026 11.951 13.7642 11.9105 13.8182C11.87 13.8721 11.8191 13.9173 11.7607 13.9511C11.7023 13.9848 11.6377 14.0064 11.5708 14.0145C11.5038 14.0227 11.4359 14.0172 11.3712 13.9984C11.3064 13.9796 11.2461 13.9479 11.1939 13.9052C11.1417 13.8625 11.0987 13.8097 11.0674 13.7499C10.7525 13.2166 10.3039 12.7746 9.76596 12.4676C9.22803 12.1605 8.61934 11.999 7.99995 11.999C7.38055 11.999 6.77186 12.1605 6.23393 12.4676C5.696 12.7746 5.24742 13.2166 4.93245 13.7499C4.90119 13.8097 4.85817 13.8625 4.80597 13.9052C4.75377 13.9479 4.69348 13.9796 4.62871 13.9984C4.56395 14.0172 4.49605 14.0227 4.42911 14.0145C4.36217 14.0064 4.29756 13.9848 4.23918 13.9511C4.1808 13.9173 4.12985 13.8721 4.08939 13.8182C4.04893 13.7642 4.0198 13.7026 4.00376 13.6371C3.98772 13.5716 3.98509 13.5036 3.99603 13.437C4.00698 13.3705 4.03127 13.3069 4.06745 13.2499C4.55219 12.4171 5.29132 11.7616 6.1762 11.3799C5.67828 10.9987 5.31234 10.471 5.12982 9.87109C4.9473 9.27114 4.95738 8.62907 5.15864 8.03514C5.3599 7.44121 5.74222 6.92528 6.25186 6.55987C6.76151 6.19446 7.37284 5.99795 7.99995 5.99795C8.62705 5.99795 9.23839 6.19446 9.74803 6.55987C10.2577 6.92528 10.64 7.44121 10.8412 8.03514C11.0425 8.62907 11.0526 9.27114 10.8701 9.87109C10.6876 10.471 10.3216 10.9987 9.82369 11.3799C10.7086 11.7616 11.4477 12.4171 11.9324 13.2499ZM7.99995 10.9999C8.39551 10.9999 8.78219 10.8827 9.11108 10.6629C9.43998 10.4431 9.69633 10.1308 9.8477 9.76532C9.99908 9.39986 10.0387 8.99773 9.96152 8.60977C9.88435 8.22181 9.69386 7.86544 9.41416 7.58573C9.13445 7.30603 8.77809 7.11555 8.39013 7.03838C8.00216 6.96121 7.60003 7.00081 7.23458 7.15219C6.86913 7.30356 6.55677 7.55991 6.33701 7.88881C6.11724 8.21771 5.99995 8.60439 5.99995 8.99995C5.99995 9.53038 6.21066 10.0391 6.58573 10.4142C6.9608 10.7892 7.46951 10.9999 7.99995 10.9999ZM4.49995 7.49995C4.49995 7.36734 4.44727 7.24016 4.3535 7.1464C4.25973 7.05263 4.13255 6.99995 3.99995 6.99995C3.7194 6.99992 3.44448 6.92122 3.20643 6.77279C2.96837 6.62435 2.77671 6.41213 2.65321 6.16022C2.52972 5.90832 2.47935 5.62683 2.50782 5.34774C2.53629 5.06864 2.64245 4.80312 2.81426 4.58134C2.98607 4.35956 3.21663 4.1904 3.47976 4.09308C3.74288 3.99577 4.02803 3.9742 4.3028 4.03081C4.57757 4.08743 4.83096 4.21997 5.03418 4.41338C5.2374 4.60679 5.38231 4.85331 5.45245 5.12495C5.4856 5.25341 5.56842 5.36345 5.6827 5.43084C5.79698 5.49824 5.93336 5.51748 6.06182 5.48432C6.19028 5.45117 6.30032 5.36835 6.36771 5.25407C6.43511 5.13979 6.45435 5.00341 6.4212 4.87495C6.32385 4.49827 6.13993 4.14951 5.88408 3.85642C5.62822 3.56333 5.3075 3.33399 4.94742 3.18667C4.58734 3.03934 4.19784 2.97809 3.80992 3.00778C3.422 3.03747 3.04636 3.15729 2.7129 3.35771C2.37944 3.55812 2.09735 3.83359 1.88908 4.16221C1.68082 4.49083 1.55212 4.86352 1.51324 5.25062C1.47435 5.63773 1.52635 6.02857 1.6651 6.39204C1.80384 6.75552 2.0255 7.08159 2.31245 7.34432C1.63325 7.63898 1.04289 8.10609 0.599946 8.69932C0.520298 8.80541 0.486055 8.93879 0.50475 9.07013C0.523445 9.20146 0.593546 9.31999 0.699633 9.39964C0.80572 9.47928 0.939101 9.51353 1.07044 9.49483C1.20177 9.47614 1.3203 9.40604 1.39995 9.29995C1.70131 8.89486 2.09358 8.56619 2.54517 8.3404C2.99676 8.1146 3.49506 7.99799 3.99995 7.99995C4.13255 7.99995 4.25973 7.94727 4.3535 7.8535C4.44727 7.75973 4.49995 7.63256 4.49995 7.49995Z" fill="white"/>
</svg>
